<svg width="25" height="24" viewBox="0 0 25 24" fill="none" xmlns="http://www.w3.org/2000/svg">
<path d="M4.5 4V8H8.5V4H4.5ZM4.5 2H8.5C9.03043 2 9.53914 2.21071 9.91421 2.58579C10.2893 2.96086 10.5 3.46957 10.5 4V8C10.5 8.53043 10.2893 9.03914 9.91421 9.41421C9.53914 9.78929 9.03043 10 8.5 10H4.5C3.96957 10 3.46086 9.78929 3.08579 9.41421C2.71071 9.03914 2.5 8.53043 2.5 8V4C2.5 3.46957 2.71071 2.96086 3.08579 2.58579C3.46086 2.21071 3.96957 2 4.5 2V2ZM16.5 2H20.5C21.0304 2 21.5391 2.21071 21.9142 2.58579C22.2893 2.96086 22.5 3.46957 22.5 4V8C22.5 8.53043 22.2893 9.03914 21.9142 9.41421C21.5391 9.78929 21.0304 10 20.5 10H16.5C15.9696 10 15.4609 9.78929 15.0858 9.41421C14.7107 9.03914 14.5 8.53043 14.5 8V4C14.5 3.46957 14.7107 2.96086 15.0858 2.58579C15.4609 2.21071 15.9696 2 16.5 2V2ZM16.5 4V8H20.5V4H16.5ZM16.5 14H20.5C21.0304 14 21.5391 14.2107 21.9142 14.5858C22.2893 14.9609 22.5 15.4696 22.5 16V20C22.5 20.5304 22.2893 21.0391 21.9142 21.4142C21.5391 21.7893 21.0304 22 20.5 22H16.5C15.9696 22 15.4609 21.7893 15.0858 21.4142C14.7107 21.0391 14.5 20.5304 14.5 20V16C14.5 15.4696 14.7107 14.9609 15.0858 14.5858C15.4609 14.2107 15.9696 14 16.5 14ZM16.5 16V20H20.5V16H16.5ZM4.5 14H8.5C9.03043 14 9.53914 14.2107 9.91421 14.5858C10.2893 14.9609 10.5 15.4696 10.5 16V20C10.5 20.5304 10.2893 21.0391 9.91421 21.4142C9.53914 21.7893 9.03043 22 8.5 22H4.5C3.96957 22 3.46086 21.7893 3.08579 21.4142C2.71071 21.0391 2.5 20.5304 2.5 20V16C2.5 15.4696 2.71071 14.9609 3.08579 14.5858C3.46086 14.2107 3.96957 14 4.5 14ZM4.5 16V20H8.5V16H4.5Z" fill="#6E6E7A"/>
<rect x="20" width="4" height="4" rx="2" fill="#F54D45"/>
</svg>
