<svg width="25" height="24" viewBox="0 0 25 24" fill="none" xmlns="http://www.w3.org/2000/svg">
<path d="M7.6 6H17.4C17.2529 5.27456 16.9454 4.59121 16.5 4H8.5C8.05461 4.59121 7.7471 5.27456 7.6 6ZM17.4 8H7.6C7.83148 9.12864 8.44549 10.1428 9.33827 10.871C10.2311 11.5993 11.3479 11.997 12.5 11.997C13.6521 11.997 14.7689 11.5993 15.6617 10.871C16.5545 10.1428 17.1685 9.12864 17.4 8ZM11.5 20V13.93C10.2082 13.7431 8.99445 13.1989 7.99559 12.3587C6.99673 11.5186 6.25257 10.416 5.84711 9.17535C5.44164 7.93473 5.39101 6.60547 5.70092 5.33759C6.01083 4.06971 6.66895 2.91369 7.601 2L17.399 2C18.3311 2.91369 18.9892 4.06971 19.2991 5.33759C19.609 6.60547 19.5584 7.93473 19.1529 9.17535C18.7474 10.416 18.0033 11.5186 17.0044 12.3587C16.0056 13.1989 14.7918 13.7431 13.5 13.93V20H15.5C15.7652 20 16.0196 20.1054 16.2071 20.2929C16.3946 20.4804 16.5 20.7348 16.5 21C16.5 21.2652 16.3946 21.5196 16.2071 21.7071C16.0196 21.8946 15.7652 22 15.5 22H9.5C9.23478 22 8.98043 21.8946 8.79289 21.7071C8.60536 21.5196 8.5 21.2652 8.5 21C8.5 20.7348 8.60536 20.4804 8.79289 20.2929C8.98043 20.1054 9.23478 20 9.5 20H11.5Z" fill="#6E6E7A"/>
<rect x="20" width="4" height="4" rx="2" fill="#F54D45"/>
</svg>
