<svg width="25" height="24" viewBox="0 0 25 24" fill="none" xmlns="http://www.w3.org/2000/svg">
<path d="M9.478 16.969C9.47819 16.958 9.47886 16.947 9.48 16.936L9.478 16.969ZM9.479 16.802C9.47933 16.803 9.47967 16.804 9.48 16.805V16.802H9.479ZM9.519 18.702C12.197 16.24 12.526 16.046 13.312 15.968C16.864 15.615 19.5 13.01 19.5 10.004C19.5 6.744 16.415 4.001 12.5 4.001C8.585 4.001 5.5 6.745 5.5 10.004C5.5 11.897 6.675 13.771 8.554 14.961C9.337 15.456 9.512 16.078 9.495 16.739C9.49348 16.7891 9.49047 16.8391 9.486 16.889C9.508 17.219 9.518 17.809 9.519 18.703V18.702ZM13.509 17.959C13.324 17.977 11.884 19.235 9.189 21.733C9.04579 21.8658 8.86681 21.9538 8.67416 21.9861C8.48151 22.0184 8.28363 21.9935 8.10495 21.9146C7.92626 21.8357 7.77461 21.7061 7.6687 21.542C7.5628 21.3779 7.50728 21.1863 7.509 20.991C7.529 18.629 7.52 17.282 7.485 16.951C7.467 16.778 7.517 16.671 7.485 16.651C5.208 15.212 3.5 12.775 3.5 10.005C3.5 5.584 7.53 2 12.5 2C17.47 2 21.5 5.584 21.5 10.004C21.5 14.121 18.005 17.513 13.51 17.959H13.509Z" fill="#DB2A6B"/>
<rect x="20" width="4" height="4" rx="2" fill="#F54D45"/>
</svg>
